<?xml version="1.0" encoding="utf-8"?>
<!-- Generator: Adobe Illustrator 23.0.1, SVG Export Plug-In . SVG Version: 6.00 Build 0)  -->
<svg version="1.1" id="Layer_1" xmlns="http://www.w3.org/2000/svg" xmlns:xlink="http://www.w3.org/1999/xlink" x="0px" y="0px"
	 viewBox="0 0 350 350" enable-background="new 0 0 350 350" xml:space="preserve">
<g>
	<path fill-rule="evenodd" clip-rule="evenodd" fill="#FFFFFF" d="M169.9,43.4c-3.6-0.8-7.3,1.4-8.1,5.1c-0.8,3.6,1.4,7.3,5.1,8.1
		c16.8,3.9,32.2,12.4,44.5,24.7c36.1,36.1,36.1,94.8,0,130.8c-36.1,36.1-94.8,36.1-130.8,0c-36.1-36.1-36.1-94.8,0-130.8
		c10.4-10.4,22.6-17.9,36.4-22.5c3.5-1.2,5.5-5,4.3-8.5c-1.2-3.5-5-5.5-8.5-4.3c-15.8,5.2-29.9,13.9-41.8,25.7
		c-41.3,41.3-41.3,108.6,0,149.9c20.7,20.7,47.8,31,75,31c27.2,0,54.3-10.3,75-31c41.3-41.3,41.3-108.6,0-149.9
		C206.8,57.6,189.2,47.8,169.9,43.4z"/>
	<path fill-rule="evenodd" clip-rule="evenodd" fill="#FFFFFF" d="M339,295.2l-70.9-70.9c36.3-57,28.4-131.9-19.8-180.1
		C221,16.9,184.6,1.8,145.9,1.8c-38.7,0-75.1,15.1-102.4,42.4C16.1,71.6,1.1,108,1.1,146.7c0,38.7,15.1,75.1,42.4,102.4
		c27.4,27.4,63.7,42.4,102.4,42.4c27.8,0,54.5-7.8,77.7-22.6l70.9,70.9c5.9,5.9,13.8,9.2,22.3,9.2c8.4,0,16.3-3.3,22.3-9.2
		C351.3,327.5,351.3,307.5,339,295.2z M329.5,330.2c-3.4,3.4-7.9,5.2-12.7,5.2c-4.8,0-9.3-1.9-12.7-5.2l-74.8-74.8
		c-1.3-1.3-3-2-4.8-2c-1.3,0-2.7,0.4-3.9,1.2c-22,15.2-47.8,23.3-74.7,23.3c-35.1,0-68-13.7-92.8-38.5C1.8,188.3,1.8,105,53,53.8
		c24.8-24.8,57.8-38.5,92.9-38.5c35.1,0,68,13.7,92.8,38.5c44.9,44.9,51.3,115.4,15.2,167.6c-1.9,2.7-1.5,6.3,0.8,8.6l74.8,74.8
		C336.5,311.8,336.5,323.2,329.5,330.2z"/>
	<path fill-rule="evenodd" clip-rule="evenodd" fill="#FFFFFF" d="M186.7,105.8c-2.6-2.6-6.9-2.6-9.6,0l-31.3,31.3l-31.3-31.3
		c-2.6-2.6-6.9-2.6-9.6,0s-2.6,6.9,0,9.6l31.3,31.3l-31.3,31.3c-2.6,2.6-2.6,6.9,0,9.6c1.3,1.3,3.1,2,4.8,2c1.7,0,3.5-0.7,4.8-2
		l31.3-31.3l31.3,31.3c1.3,1.3,3.1,2,4.8,2c1.7,0,3.5-0.7,4.8-2c2.6-2.6,2.6-6.9,0-9.6l-31.3-31.3l31.3-31.3
		C189.4,112.7,189.4,108.5,186.7,105.8z"/>
	<path fill-rule="evenodd" clip-rule="evenodd" fill="#FFFFFF" d="M141.4,54.2c3.7,0,6.8-3,6.8-6.8c0-3.7-3-6.8-6.8-6.8
		c-3.7,0-6.8,3-6.8,6.8C134.6,51.2,137.7,54.2,141.4,54.2z"/>
</g>
</svg>
