<?xml version="1.0" encoding="utf-8"?>
<!-- Generator: Adobe Illustrator 23.0.1, SVG Export Plug-In . SVG Version: 6.00 Build 0)  -->
<svg version="1.1" id="Layer_1" xmlns="http://www.w3.org/2000/svg" xmlns:xlink="http://www.w3.org/1999/xlink" x="0px" y="0px"
	 viewBox="0 0 300 65" enable-background="new 0 0 300 65" xml:space="preserve">
<path fill="#FFFFFF" d="M134.4,1.5c-1.1,0.4-1.8,1.4-1.8,2.5c0,2.8,3.7,3.7,5.1,1.2c0.3-0.6,0.3-1.8,0-2.4
	C137,1.6,135.6,1,134.4,1.5L134.4,1.5z M143.1,10.3c-1.7,0.5-2.9,1.6-3.5,3.3c-0.2,0.6-0.2,0.8-0.2,1.7c0,1,0.1,1.1,0.4,1.8
	c0.4,0.9,0.9,1.5,1.7,2c0.9,0.6,1.6,0.8,2.8,0.8c2,0,3.5-1,4.5-2.8c0.3-0.7,0.4-0.9,0.4-1.8c0.1-1.2-0.1-2-0.7-2.9
	C147.3,10.7,145,9.8,143.1,10.3L143.1,10.3z M64.9,29.8c0,5.6,0,10.1-0.1,10.1c-0.1,0-0.2-0.1-0.3-0.3s-0.6-0.5-1-0.8
	c-2.1-1.4-4.3-2.1-7.2-2.1c-2.8,0-5.1,0.7-7.2,2.1c-4.1,2.8-6.3,7.9-5.8,13.2c0.7,7.6,6.4,12.8,13.6,12.5c2.8-0.1,5.1-1,7.2-2.9
	l0.9-0.8V62c0,0.6,0,1.3,0.1,1.5l0.1,0.3h9V19.7h-9.1V29.8z M61,44.8c1,0.4,1.6,0.8,2.3,1.4c1.1,1.1,1.7,2.6,1.7,4.4
	c0,1.8-0.6,3.2-1.7,4.4c-1.1,1.1-2.3,1.6-4,1.7c-3.1,0.2-5.7-1.6-6.3-4.5c-0.2-0.9-0.2-2.5,0-3.3c0.3-1.1,0.8-1.9,1.6-2.8
	c0.9-0.9,1.7-1.3,2.8-1.6C58.4,44.4,60.2,44.5,61,44.8L61,44.8z M244,41.8v22.1h9v-3.1l0.6,0.6c4.1,3.8,10.3,4.3,15.2,1.1
	c1-0.7,2.8-2.4,3.5-3.5c1.8-2.7,2.6-5.9,2.4-9.5c-0.2-3.4-1.5-6.5-3.8-8.9c-2.5-2.6-5.5-3.9-9.3-3.9c-3.3,0-5.7,0.8-8.2,2.9
	l-0.3,0.3V19.7H244V41.8z M260.5,44.6c3.3,0.8,5.2,4,4.5,7.5c-0.4,2.1-2,3.8-4.1,4.4c-3,0.8-6.1-0.5-7.3-3c-1.8-3.7,0.1-8,3.9-8.9
	C258.3,44.4,259.8,44.4,260.5,44.6L260.5,44.6z M17.3,21.8c-0.8,2-16.8,41.7-16.9,41.8c-0.1,0.2,0.2,0.2,5.1,0.2h5.2l0.8-2.1
	c0.4-1.1,1.1-3,1.6-4.2l0.8-2.1l8.1,0l8.1,0l1.6,4.2l1.6,4.2l5.2,0l5.2,0l-0.1-0.3c-0.1-0.2-3.9-9.7-8.6-21.2l-8.4-20.8h-9
	L17.3,21.8L17.3,21.8z M24.3,40.7c1.3,3.3,2.3,6,2.3,6.1c0,0.1-0.9,0.1-4.7,0.1c-3.5,0-4.7,0-4.7-0.1c0-0.3,4.6-12.2,4.7-12.2
	C22,34.7,23,37.4,24.3,40.7z M180,42.6v21.2l12.1,0l12.1,0l0-4.2l0-4.2l-7.3,0l-7.3,0l0-16.9l0-16.9H180V42.6z M133.9,23.6
	c-2.2,0.8-3.4,2.8-3.1,5c0.2,1,0.6,1.8,1.3,2.5c0.7,0.7,1.2,1,2.1,1.2c2.1,0.5,4.2-0.5,5.2-2.4c0.3-0.7,0.4-0.8,0.4-1.9
	c0-1.1,0-1.2-0.3-1.9c-0.4-0.9-1.3-1.8-2.2-2.2c-0.6-0.3-0.8-0.3-1.7-0.4C134.6,23.5,134.3,23.5,133.9,23.6z M94.8,36.9
	c-1.6,0.4-3.3,1.3-4.8,2.6c-0.4,0.3-0.7,0.6-0.8,0.6c0,0-0.1-0.6-0.1-1.4v-1.4h-9.1v26.4h9.1V56c0-4.8,0-8,0.1-8.4
	c0.2-1,0.5-1.7,1.1-2.4c0.9-1,2.3-1.4,3.9-1.2c1.8,0.3,3.1,1.4,3.6,3.2c0.2,0.6,0.2,1.4,0.2,8.6l0,8l4.5,0l4.5,0l0.1-8.4l0.1-8.4
	l0.3-0.7c0.4-0.9,1-1.5,1.8-1.9c0.8-0.4,1.8-0.6,2.8-0.4c1.8,0.3,3,1.3,3.6,3.1c0.2,0.6,0.2,0.8,0.3,8.7l0,8h9.1v-8.9
	c0-5.6,0-9.3-0.1-9.9c-0.1-1.3-0.5-2.6-1.1-3.6c-0.5-1.1-2-2.5-3.1-3.2c-1.6-1-3.7-1.5-5.9-1.5c-1.7,0-2.7,0.2-4.3,1
	c-1.4,0.7-2.3,1.4-3.6,2.7l-1,1l-0.4-0.6c-1.1-1.8-3.1-3.1-5.5-3.8C98.6,36.7,96,36.6,94.8,36.9L94.8,36.9z M160.9,36.9
	c-1.8,0.5-3.3,1.3-5.1,2.9l-0.4,0.4v-2.8h-9.1v26.4l4.5,0l4.5,0l0.1-7.9c0.1-7.3,0.1-8,0.2-8.4c0.6-1.5,2.1-2.9,3.6-3.4
	c0.9-0.3,2.2-0.3,3,0c1.3,0.5,2.3,1.5,2.9,3l0.3,0.6l0,8.1l0,8.1h9.1l0-9.5c0-9.5,0-9.5-0.3-10.4c-0.5-1.7-1.2-2.9-2.4-4.1
	c-1.6-1.5-3.8-2.5-6.4-2.9C163.9,36.7,161.8,36.7,160.9,36.9L160.9,36.9z M217.8,36.9c-5.7,1-9.9,5.8-10.6,11.9
	c-0.1,1.3-0.1,3.7,0.2,4.8c0.8,4.2,3.3,7.7,6.8,9.5c1.7,0.9,3.3,1.3,5.4,1.4c3.3,0.2,6.4-0.9,8.6-3.1l0.7-0.7v3.1h9V37.5h-9.1v2.4
	l-0.9-0.7c-1.5-1.2-3.6-2.1-5.6-2.3C221.3,36.7,218.8,36.7,217.8,36.9L217.8,36.9z M224.4,44.6c1.1,0.3,2,0.7,2.8,1.6
	c1.2,1.2,1.8,2.6,1.8,4.4c0,2.1-0.9,3.9-2.4,5c-0.8,0.6-1.4,0.8-2.5,1.1c-2.8,0.6-5.6-0.7-6.7-3.1c-1.5-3.1-0.3-6.9,2.6-8.4
	C221.2,44.5,223,44.3,224.4,44.6L224.4,44.6z M287.3,36.9c-2.8,0.4-4.9,1.4-6.3,2.9c-0.9,0.9-1.5,1.8-1.8,2.8
	c-0.9,2.8-0.3,5.5,1.5,7.4c1.3,1.3,2.9,2.3,5.7,3.4c1,0.4,2,0.8,2.4,1c1,0.5,1.3,1.1,1.2,2c-0.1,0.6-0.6,1.1-1.2,1.3
	c-2.1,0.5-4.4-0.2-7.3-2.2c-0.4-0.3-0.8-0.6-0.8-0.6c-0.3,0.3-3.6,6.1-3.6,6.2c0.1,0.2,1.5,1.2,2.6,1.7c2.3,1.2,4.4,1.7,7.2,1.8
	c7.6,0.2,12-2.4,12.7-7.6c0.4-3-0.6-5.6-2.8-7.3c-1.2-0.9-2.8-1.7-5.3-2.5c-2.4-0.8-3.1-1.1-3.5-1.6c-0.3-0.4-0.4-0.7-0.3-1.2
	c0.1-0.4,0.3-0.8,0.7-1c0.5-0.3,2.7-0.3,3.8-0.1c1,0.2,2.7,0.8,3.5,1.2c0.3,0.1,0.5,0.3,0.6,0.3s0.7-1.3,1.5-2.9
	c1.7-3.4,1.7-3,0-3.6c-1.3-0.5-3.1-1-4.6-1.2C291.7,36.7,288.6,36.7,287.3,36.9L287.3,36.9z M130.6,50.6l0,13.2h9.1l0-13.2l0-13.1
	h-9.2L130.6,50.6z"/>
</svg>
