<?xml version="1.0" encoding="utf-8"?>
<!-- Generator: Adobe Illustrator 23.0.1, SVG Export Plug-In . SVG Version: 6.00 Build 0)  -->
<svg version="1.1" xmlns="http://www.w3.org/2000/svg" xmlns:xlink="http://www.w3.org/1999/xlink" x="0px" y="0px"
	 viewBox="0 0 350 247.6" enable-background="new 0 0 350 247.6" xml:space="preserve">
<g id="Layer_1">
</g>
<g id="Capa_1">
	<g id="XMLID_85_">
		<path id="XMLID_89_" fill="#FFFFFF" d="M175.1,140C175.1,140,175.1,140,175.1,140c-48,0-93.1,18.7-127,52.6
			c-12.1,12.1-12.1,31.7,0,43.8c6,6,14,9.1,21.9,9.1s15.9-3,21.9-9.1c22.2-22.2,51.8-34.5,83.2-34.5s61,12.2,83.2,34.5
			c12.1,12.1,31.7,12.1,43.8,0c12.1-12.1,12.1-31.7,0-43.8C268.2,158.7,223.1,140,175.1,140z"/>
		<path id="XMLID_90_" fill="#FFFFFF" d="M72.2,72.5c7.7-7.7,12.1-18.3,12.1-29.2s-4.4-21.5-12.1-29.2C64.5,6.5,53.8,2,43,2
			C32.1,2,21.5,6.5,13.8,14.1C6.1,21.8,1.7,32.5,1.7,43.3c0,10.9,4.4,21.5,12.1,29.2S32.1,84.6,43,84.6S64.5,80.2,72.2,72.5z"/>
		<path id="XMLID_91_" fill="#FFFFFF" d="M307.2,2c-10.9,0-21.5,4.4-29.2,12.1c-7.7,7.7-12.1,18.3-12.1,29.2
			c0,10.9,4.4,21.5,12.1,29.2c7.7,7.7,18.3,12.1,29.2,12.1s21.5-4.4,29.2-12.1c7.7-7.7,12.1-18.3,12.1-29.2s-4.4-21.5-12.1-29.2
			C328.8,6.5,318.1,2,307.2,2z"/>
	</g>
</g>
</svg>
